<svg width="251" height="31" viewBox="0 0 251 31" fill="none" xmlns="http://www.w3.org/2000/svg">
<path d="M9.12 7.28H0.16V2H24.56V7.28H15.6V30H9.12V7.28ZM35.1928 8.16C38.5261 8.16 41.0861 8.96 42.8728 10.56C44.6595 12.1333 45.5528 14.52 45.5528 17.72V30H39.7128V27.32C38.5395 29.32 36.3528 30.32 33.1528 30.32C31.4995 30.32 30.0595 30.04 28.8328 29.48C27.6328 28.92 26.7128 28.1467 26.0728 27.16C25.4328 26.1733 25.1128 25.0533 25.1128 23.8C25.1128 21.8 25.8595 20.2267 27.3528 19.08C28.8728 17.9333 31.2061 17.36 34.3528 17.36H39.3128C39.3128 16 38.8995 14.96 38.0728 14.24C37.2461 13.4933 36.0061 13.12 34.3528 13.12C33.2061 13.12 32.0728 13.3067 30.9528 13.68C29.8595 14.0267 28.9261 14.5067 28.1528 15.12L25.9128 10.76C27.0861 9.93333 28.4861 9.29333 30.1128 8.84C31.7661 8.38667 33.4595 8.16 35.1928 8.16ZM34.7128 26.12C35.7795 26.12 36.7261 25.88 37.5528 25.4C38.3795 24.8933 38.9661 24.16 39.3128 23.2V21H35.0328C32.4728 21 31.1928 21.84 31.1928 23.52C31.1928 24.32 31.4995 24.96 32.1128 25.44C32.7528 25.8933 33.6195 26.12 34.7128 26.12ZM63.9203 8.16C65.9203 8.16 67.7336 8.62667 69.3603 9.56C71.0136 10.4667 72.307 11.76 73.2403 13.44C74.1736 15.0933 74.6403 17.0267 74.6403 19.24C74.6403 21.4533 74.1736 23.4 73.2403 25.08C72.307 26.7333 71.0136 28.0267 69.3603 28.96C67.7336 29.8667 65.9203 30.32 63.9203 30.32C60.9603 30.32 58.707 29.3867 57.1603 27.52V30H51.2003V0.319998H57.4403V10.76C59.0136 9.02667 61.1736 8.16 63.9203 8.16ZM62.8403 25.2C64.4403 25.2 65.747 24.6667 66.7603 23.6C67.8003 22.5067 68.3203 21.0533 68.3203 19.24C68.3203 17.4267 67.8003 15.9867 66.7603 14.92C65.747 13.8267 64.4403 13.28 62.8403 13.28C61.2403 13.28 59.9203 13.8267 58.8803 14.92C57.867 15.9867 57.3603 17.4267 57.3603 19.24C57.3603 21.0533 57.867 22.5067 58.8803 23.6C59.9203 24.6667 61.2403 25.2 62.8403 25.2ZM78.8175 0.319998H85.0575V30H78.8175V0.319998ZM111.929 19.32C111.929 19.4 111.889 19.96 111.809 21H95.5288C95.8221 22.3333 96.5154 23.3867 97.6088 24.16C98.7021 24.9333 100.062 25.32 101.689 25.32C102.809 25.32 103.795 25.16 104.649 24.84C105.529 24.4933 106.342 23.96 107.089 23.24L110.409 26.84C108.382 29.16 105.422 30.32 101.529 30.32C99.1021 30.32 96.9554 29.8533 95.0888 28.92C93.2221 27.96 91.7821 26.64 90.7688 24.96C89.7554 23.28 89.2488 21.3733 89.2488 19.24C89.2488 17.1333 89.7421 15.24 90.7288 13.56C91.7421 11.8533 93.1154 10.5333 94.8488 9.6C96.6088 8.64 98.5688 8.16 100.729 8.16C102.835 8.16 104.742 8.61333 106.449 9.52C108.155 10.4267 109.489 11.7333 110.449 13.44C111.435 15.12 111.929 17.08 111.929 19.32ZM100.769 12.88C99.3554 12.88 98.1688 13.28 97.2088 14.08C96.2488 14.88 95.6621 15.9733 95.4488 17.36H106.049C105.835 16 105.249 14.92 104.289 14.12C103.329 13.2933 102.155 12.88 100.769 12.88ZM137.083 15.44C138.683 15.9467 139.936 16.8 140.843 18C141.75 19.1733 142.203 20.6267 142.203 22.36C142.203 24.8133 141.243 26.7067 139.323 28.04C137.43 29.3467 134.656 30 131.003 30H116.523V2H130.203C133.616 2 136.23 2.65333 138.043 3.96C139.883 5.26666 140.803 7.04 140.803 9.28C140.803 10.64 140.47 11.8533 139.803 12.92C139.163 13.9867 138.256 14.8267 137.083 15.44ZM122.963 6.88V13.48H129.403C131.003 13.48 132.216 13.2 133.043 12.64C133.87 12.08 134.283 11.2533 134.283 10.16C134.283 9.06667 133.87 8.25333 133.043 7.72C132.216 7.16 131.003 6.88 129.403 6.88H122.963ZM130.523 25.12C132.23 25.12 133.51 24.84 134.363 24.28C135.243 23.72 135.683 22.8533 135.683 21.68C135.683 19.36 133.963 18.2 130.523 18.2H122.963V25.12H130.523ZM224.809 19L221.049 22.92V30H214.609V2H221.049V15.08L233.449 2H240.649L229.049 14.48L241.329 30H233.769L224.809 19ZM246.138 30.32C245.045 30.32 244.125 29.9467 243.378 29.2C242.632 28.4533 242.258 27.52 242.258 26.4C242.258 25.2533 242.632 24.3333 243.378 23.64C244.125 22.92 245.045 22.56 246.138 22.56C247.232 22.56 248.152 22.92 248.898 23.64C249.645 24.3333 250.018 25.2533 250.018 26.4C250.018 27.52 249.645 28.4533 248.898 29.2C248.152 29.9467 247.232 30.32 246.138 30.32Z" fill="#1E58FF"/>
<path d="M160.669 30.48C157.762 30.48 155.136 29.8533 152.789 28.6C150.469 27.3467 148.642 25.6267 147.309 23.44C146.002 21.2267 145.349 18.7467 145.349 16C145.349 13.2533 146.002 10.7867 147.309 8.6C148.642 6.38667 150.469 4.65333 152.789 3.4C155.136 2.14667 157.762 1.52 160.669 1.52C163.576 1.52 166.189 2.14667 168.509 3.4C170.829 4.65333 172.656 6.38667 173.989 8.6C175.322 10.7867 175.989 13.2533 175.989 16C175.989 18.7467 175.322 21.2267 173.989 23.44C172.656 25.6267 170.829 27.3467 168.509 28.6C166.189 29.8533 163.576 30.48 160.669 30.48ZM160.669 24.96C162.322 24.96 163.816 24.5867 165.149 23.84C166.482 23.0667 167.522 22 168.269 20.64C169.042 19.28 169.429 17.7333 169.429 16C169.429 14.2667 169.042 12.72 168.269 11.36C167.522 10 166.482 8.94667 165.149 8.2C163.816 7.42667 162.322 7.04 160.669 7.04C159.016 7.04 157.522 7.42667 156.189 8.2C154.856 8.94667 153.802 10 153.029 11.36C152.282 12.72 151.909 14.2667 151.909 16C151.909 17.7333 152.282 19.28 153.029 20.64C153.802 22 154.856 23.0667 156.189 23.84C157.522 24.5867 159.016 24.96 160.669 24.96ZM194.419 30.48C191.512 30.48 188.886 29.8533 186.539 28.6C184.219 27.3467 182.392 25.6267 181.059 23.44C179.752 21.2267 179.099 18.7467 179.099 16C179.099 13.2533 179.752 10.7867 181.059 8.6C182.392 6.38667 184.219 4.65333 186.539 3.4C188.886 2.14667 191.512 1.52 194.419 1.52C197.326 1.52 199.939 2.14667 202.259 3.4C204.579 4.65333 206.406 6.38667 207.739 8.6C209.072 10.7867 209.739 13.2533 209.739 16C209.739 18.7467 209.072 21.2267 207.739 23.44C206.406 25.6267 204.579 27.3467 202.259 28.6C199.939 29.8533 197.326 30.48 194.419 30.48ZM194.419 24.96C196.072 24.96 197.566 24.5867 198.899 23.84C200.232 23.0667 201.272 22 202.019 20.64C202.792 19.28 203.179 17.7333 203.179 16C203.179 14.2667 202.792 12.72 202.019 11.36C201.272 10 200.232 8.94667 198.899 8.2C197.566 7.42667 196.072 7.04 194.419 7.04C192.766 7.04 191.272 7.42667 189.939 8.2C188.606 8.94667 187.552 10 186.779 11.36C186.032 12.72 185.659 14.2667 185.659 16C185.659 17.7333 186.032 19.28 186.779 20.64C187.552 22 188.606 23.0667 189.939 23.84C191.272 24.5867 192.766 24.96 194.419 24.96Z" fill="#B9E1FE"/>
</svg>
